<svg xmlns="http://www.w3.org/2000/svg" viewBox="0 0 1800 367"><defs><style>.cls-1{fill:#23487c;}.cls-2{fill:#696a6d;}</style></defs><title>geotab-logo(full-colour-cmyk)</title><g id="Layer_2" data-name="Layer 2"><path class="cls-1" d="M1795,199.617a29.416,29.416,0,1,1-8.781-20.855A28.362,28.362,0,0,1,1795,199.617Zm-4,0a24.807,24.807,0,0,0-7.464-17.562,25.289,25.289,0,0,0-35.739-.263l-.263.263a25.641,25.641,0,0,0,0,36.178,25.289,25.289,0,0,0,35.739.263l.263-.263a24.807,24.807,0,0,0,7.464-18.44Zm-6.542,15.147h-7.639l-11.24-12.074h-5.488v12.074h-5.752V183.5h10.625a41.845,41.845,0,0,1,5.225,0,12.163,12.163,0,0,1,4.083,1.317,7.992,7.992,0,0,1,3.117,2.854,7.814,7.814,0,0,1,.966,4.171,8.079,8.079,0,0,1-1.932,5.488,13.172,13.172,0,0,1-5.313,3.468Zm-11.986-22.26a4.787,4.787,0,0,0-.439-2.2,3.645,3.645,0,0,0-1.581-1.581,6.543,6.543,0,0,0-2.2-.7h-8.079v10.537h4.39a17.56,17.56,0,0,0,3.644,0,5.928,5.928,0,0,0,2.5-1.054,4.786,4.786,0,0,0,1.493-1.844,6.632,6.632,0,0,0,.351-3.293Z"/><path class="cls-2" d="M10.038,289.519H17.09v9.571a27.41,27.41,0,0,1,7.527-7.793,21.484,21.484,0,0,1,11.26-3.23,18.728,18.728,0,0,1,7.586,1.571,16.387,16.387,0,0,1,5.927,4.178,22.313,22.313,0,0,1,3.941,7.408,26.017,26.017,0,0,1,8.742-9.927,20.743,20.743,0,0,1,11.379-3.348A17.957,17.957,0,0,1,83.5,290.912a17.128,17.128,0,0,1,6.46,8.03A42.849,42.849,0,0,1,92,314.559v29.929H85.008V314.559a39.085,39.085,0,0,0-1.245-11.853,10.964,10.964,0,0,0-4.3-5.334,12.861,12.861,0,0,0-7.23-2.045,15.794,15.794,0,0,0-9.394,2.963,17.424,17.424,0,0,0-5.927,8.09,51.175,51.175,0,0,0-1.985,16.861v21.484h-7.5V316.6a48.242,48.242,0,0,0-1.245-13.512,11.32,11.32,0,0,0-4.3-5.927,12.446,12.446,0,0,0-7.26-2.371,15.794,15.794,0,0,0-9.156,2.963,17.483,17.483,0,0,0-6.282,7.971,42.789,42.789,0,0,0-2.045,15.5v23.291H10.038Z"/><path class="cls-2" d="M163.89,289.519V344.4h-7.112v-9.453a30.284,30.284,0,0,1-9.986,8.149,27.825,27.825,0,0,1-32-5.927,28.3,28.3,0,0,1-8.267-20.595,27.825,27.825,0,0,1,8.3-20.446,27.173,27.173,0,0,1,20.061-8.445,25.84,25.84,0,0,1,11.853,2.963,27.884,27.884,0,0,1,9.631,8.623v-9.749Zm-28.24,5.393A21.306,21.306,0,0,0,116.8,305.936a22.2,22.2,0,0,0,0,22.195,21.6,21.6,0,0,0,8.03,8.267,20.743,20.743,0,0,0,10.786,2.963,22.076,22.076,0,0,0,11.023-2.963,20.476,20.476,0,0,0,7.971-7.912,22.55,22.55,0,0,0,2.815-11.26,21.839,21.839,0,0,0-5.927-15.913,20.743,20.743,0,0,0-16.12-6.4Z"/><path class="cls-2" d="M181.847,289.519H188.9v9.808a29.632,29.632,0,0,1,9.394-8.445,23.025,23.025,0,0,1,11.171-2.785,19.439,19.439,0,0,1,10.964,3.111,18.669,18.669,0,0,1,6.816,8.445,44.657,44.657,0,0,1,2.4,16.505V344.4h-7.112V318.174a64.629,64.629,0,0,0-.77-12.683,13.9,13.9,0,0,0-4.741-8.267,14.253,14.253,0,0,0-9.1-2.756,17.424,17.424,0,0,0-11.5,4.237,19.854,19.854,0,0,0-6.638,10.46,73.015,73.015,0,0,0-1.007,14.816V344.1h-6.934Z"/><path class="cls-2" d="M301.533,289.519V344.4H294.54v-9.453a30.284,30.284,0,0,1-9.986,8.149,27.825,27.825,0,0,1-32-5.927,28.3,28.3,0,0,1-8.267-20.595,27.825,27.825,0,0,1,8.3-20.446,27.173,27.173,0,0,1,20.061-8.445,25.9,25.9,0,0,1,11.853,2.963,27.825,27.825,0,0,1,9.631,8.623v-9.749Zm-28.24,5.393a21.306,21.306,0,0,0-18.846,11.023,22.254,22.254,0,0,0,0,22.195,21.661,21.661,0,0,0,8.03,8.267,20.743,20.743,0,0,0,10.786,2.963,22.076,22.076,0,0,0,11.023-2.963,20.476,20.476,0,0,0,8.03-7.912,22.61,22.61,0,0,0,2.815-11.26,21.839,21.839,0,0,0-5.927-15.913A20.743,20.743,0,0,0,273.293,294.912Z"/><path class="cls-2" d="M366.814,289.519h7.053v43.649a51.709,51.709,0,0,1-2.045,16.861,21.958,21.958,0,0,1-9.631,11.675,31.648,31.648,0,0,1-16.416,4.06,37.752,37.752,0,0,1-12.683-1.985,25.366,25.366,0,0,1-9.245-5.423,31.885,31.885,0,0,1-6.519-9.808h7.7a20.239,20.239,0,0,0,8.09,8.09,25.958,25.958,0,0,0,12.268,2.637,25.365,25.365,0,0,0,11.853-2.7,16.505,16.505,0,0,0,7.112-6.756,29.929,29.929,0,0,0,2.1-13.157v-2.815a26.669,26.669,0,0,1-9.749,7.734,28.892,28.892,0,0,1-26.462-1.067,26.669,26.669,0,0,1-10.283-10.1A27.647,27.647,0,0,1,316.32,316.4a28.536,28.536,0,0,1,28.358-28.477,26.284,26.284,0,0,1,11.5,2.578,31.648,31.648,0,0,1,10.283,8.386Zm-20.743,5.393a22.313,22.313,0,0,0-11.142,2.963,21.009,21.009,0,0,0-8.09,8.03,21.958,21.958,0,0,0-2.963,11.083A19.972,19.972,0,0,0,329.8,331.8a23.943,23.943,0,0,0,31.351,0,20.743,20.743,0,0,0,5.927-15.379,22.254,22.254,0,0,0-2.756-11.083,19.854,19.854,0,0,0-7.734-7.734,21.484,21.484,0,0,0-10.786-2.756Z"/><path class="cls-2" d="M439.176,326.2l5.927,3.111a32.6,32.6,0,0,1-6.756,9.275,26.669,26.669,0,0,1-8.623,5.393,29.929,29.929,0,0,1-10.846,1.867,26.284,26.284,0,0,1-21.009-8.89,29.929,29.929,0,0,1-7.586-19.913,29.336,29.336,0,0,1,6.4-18.609,26.225,26.225,0,0,1,21.78-10.4A27.114,27.114,0,0,1,440.9,298.676a29.929,29.929,0,0,1,5.927,18.787H397.691a22.313,22.313,0,0,0,5.927,15.676,19.5,19.5,0,0,0,14.609,5.927,23.469,23.469,0,0,0,8.149-1.422,21.424,21.424,0,0,0,6.756-3.763A33.039,33.039,0,0,0,439.176,326.2Zm0-14.816a23.409,23.409,0,0,0-4.119-8.89,19.439,19.439,0,0,0-7.112-5.452,21.9,21.9,0,0,0-9.334-2.1,20.121,20.121,0,0,0-13.9,5.215,23.469,23.469,0,0,0-6.4,11.379Z"/><path class="cls-2" d="M464.3,289.519h7.053v9.571a27.351,27.351,0,0,1,7.764-7.823,21.484,21.484,0,0,1,11.26-3.23,18.787,18.787,0,0,1,7.586,1.571,16.387,16.387,0,0,1,5.927,4.178,22.373,22.373,0,0,1,3.941,7.408,26.076,26.076,0,0,1,8.682-9.927,20.743,20.743,0,0,1,11.379-3.348,17.957,17.957,0,0,1,10.045,3.348,17.187,17.187,0,0,1,6.46,8.03,42.849,42.849,0,0,1,2.1,15.439v29.929h-7.23V314.736a39.263,39.263,0,0,0-1.245-11.853,10.964,10.964,0,0,0-4.237-5.512,12.861,12.861,0,0,0-7.23-2.045,15.794,15.794,0,0,0-9.394,2.963,17.424,17.424,0,0,0-5.927,8.09,51.176,51.176,0,0,0-1.985,16.861v21.484h-7.29V316.574a47.887,47.887,0,0,0-1.245-13.512,11.32,11.32,0,0,0-4.3-5.927,12.446,12.446,0,0,0-7.29-2.163,15.794,15.794,0,0,0-9.156,2.963,17.483,17.483,0,0,0-6.282,7.971,42.79,42.79,0,0,0-2.1,15.379v23.291H464.3Z"/><path class="cls-2" d="M609.5,326.2l5.927,3.111a32.6,32.6,0,0,1-6.756,9.275,26.876,26.876,0,0,1-8.623,5.393,29.929,29.929,0,0,1-10.9,1.867,26.284,26.284,0,0,1-21.009-8.89,29.929,29.929,0,0,1-7.586-19.913,29.4,29.4,0,0,1,6.4-18.609,26.225,26.225,0,0,1,21.81-10.342,27.114,27.114,0,0,1,22.432,10.638,29.929,29.929,0,0,1,5.927,18.787h-49.1a22.313,22.313,0,0,0,5.927,15.676,19.5,19.5,0,0,0,14.816,5.927,23.469,23.469,0,0,0,8.149-1.422,21.424,21.424,0,0,0,6.756-3.882A32.981,32.981,0,0,0,609.5,326.2Zm0-14.816a23.409,23.409,0,0,0-4.119-8.89,19.439,19.439,0,0,0-7.112-5.452,21.9,21.9,0,0,0-9.631-2.1,20.121,20.121,0,0,0-13.9,5.215,23.469,23.469,0,0,0-6.4,11.379Z"/><path class="cls-2" d="M634.722,289.519h7.053v9.808a29.633,29.633,0,0,1,9.394-8.445,23.024,23.024,0,0,1,11.2-2.815,19.439,19.439,0,0,1,10.964,3.111,18.669,18.669,0,0,1,7.053,8.445,44.449,44.449,0,0,1,2.282,16.505v28.24h-7.112V318.144a64.568,64.568,0,0,0-.77-12.683,13.9,13.9,0,0,0-4.741-8.208,14.253,14.253,0,0,0-9.1-2.756,17.424,17.424,0,0,0-11.5,4.237,19.854,19.854,0,0,0-6.816,10.4,72.9,72.9,0,0,0-1.007,14.816v20.121h-7.053Z"/><path class="cls-2" d="M705.929,269.132h7.053v20.417h11.2v5.927h-11.2V344.25h-7.053V295.623h-9.453V289.7h9.631Z"/><path class="cls-2" d="M804.842,344.4V268.332H811.9V299.09a29.929,29.929,0,0,1,10.223-8.208,27.825,27.825,0,0,1,31.944,5.927,28.3,28.3,0,0,1,8.268,20.535A27.884,27.884,0,0,1,854,337.7a27.114,27.114,0,0,1-19.972,8.445,25.543,25.543,0,0,1-11.853-2.963,28.3,28.3,0,0,1-9.631-8.623v10.1Zm28.24-5.393a21.247,21.247,0,0,0,18.965-11.083,22.372,22.372,0,0,0,0-22.254,21.662,21.662,0,0,0-8.149-8.445,20.743,20.743,0,0,0-10.7-2.963,21.958,21.958,0,0,0-11.083,2.963,20.535,20.535,0,0,0-8.03,7.971,22.669,22.669,0,0,0-2.815,11.26,21.9,21.9,0,0,0,5.927,15.913,20.743,20.743,0,0,0,15.853,6.756Z"/><path class="cls-2" d="M871.1,289.519h7.467l18.876,42.167,18.313-42.256h7.527l-32.6,74.97h-7.467L893.8,340.161Z"/><path class="cls-2" d="M1001.662,289.519h7.053v9.571a27.351,27.351,0,0,1,7.853-7.793,21.484,21.484,0,0,1,11.26-3.23,18.728,18.728,0,0,1,7.586,1.571,16.386,16.386,0,0,1,5.927,4.178,22.314,22.314,0,0,1,3.941,7.408,26.076,26.076,0,0,1,8.712-9.957,20.743,20.743,0,0,1,11.379-3.348,17.957,17.957,0,0,1,10.045,2.963,17.187,17.187,0,0,1,6.46,8.03,42.849,42.849,0,0,1,2.1,15.439V344.28h-7.23V314.351a39.2,39.2,0,0,0-1.245-11.853,10.964,10.964,0,0,0-4.3-5.334,12.86,12.86,0,0,0-7.23-2.045,15.794,15.794,0,0,0-9.394,2.963,17.424,17.424,0,0,0-5.927,8.09,51.176,51.176,0,0,0-1.985,16.861v21.484h-7.23v-28.24a47.855,47.855,0,0,0-1.245-13.512,11.32,11.32,0,0,0-4.3-5.927,12.446,12.446,0,0,0-7.29-2.163,15.794,15.794,0,0,0-9.156,2.963,17.484,17.484,0,0,0-6.282,7.971,42.909,42.909,0,0,0-2.045,15.261v23.291h-7.349Z"/><path class="cls-2" d="M1147.217,326.2l5.927,3.111a32.6,32.6,0,0,1-6.756,9.275,26.877,26.877,0,0,1-8.623,5.393,29.929,29.929,0,0,1-10.846,1.867,26.225,26.225,0,0,1-21.009-8.89,29.929,29.929,0,0,1-7.586-19.913,29.336,29.336,0,0,1,6.4-18.609,26.225,26.225,0,0,1,21.78-10.4,27.114,27.114,0,0,1,22.432,10.638,29.929,29.929,0,0,1,5.927,18.787h-49.249a22.313,22.313,0,0,0,5.927,15.676,19.5,19.5,0,0,0,14.609,5.927,23.469,23.469,0,0,0,8.149-1.422,21.424,21.424,0,0,0,6.756-3.882A33.039,33.039,0,0,0,1147.217,326.2Zm0-14.816a23.469,23.469,0,0,0-4.119-8.89,19.439,19.439,0,0,0-7.112-5.452,21.9,21.9,0,0,0-9.334-2.1,20.18,20.18,0,0,0-13.9,5.215,23.529,23.529,0,0,0-6.4,11.379Z"/><path class="cls-2" d="M1226.988,289.519V344.4h-7.053v-9.453a29.929,29.929,0,0,1-9.986,8.149,27.825,27.825,0,0,1-32-5.927,28.3,28.3,0,0,1-8.268-20.595,27.825,27.825,0,0,1,8.327-20.3,27.173,27.173,0,0,1,20.061-8.445,25.9,25.9,0,0,1,11.853,2.963,27.825,27.825,0,0,1,9.631,8.623v-9.9Zm-28.24,5.393a21.306,21.306,0,0,0-18.846,11.023,22.254,22.254,0,0,0,0,22.195,21.661,21.661,0,0,0,7.971,8.267,20.743,20.743,0,0,0,10.786,2.963,22.076,22.076,0,0,0,11.023-2.963,20.476,20.476,0,0,0,7.971-7.912,22.55,22.55,0,0,0,2.815-11.26,21.839,21.839,0,0,0-5.927-15.913,20.743,20.743,0,0,0-15.824-6.4Z"/><path class="cls-2" d="M1274.608,295.5l-4.534,4.682a16.328,16.328,0,0,0-11.083-5.512,8.386,8.386,0,0,0-5.927,2.282,6.993,6.993,0,0,0-2.459,5.334,7.853,7.853,0,0,0,2.045,5.1,28.417,28.417,0,0,0,8.5,5.927,31.707,31.707,0,0,1,10.786,7.853,14.372,14.372,0,0,1,2.756,8.623,15.5,15.5,0,0,1-4.741,11.438,16.209,16.209,0,0,1-11.853,4.682,20.743,20.743,0,0,1-9.1-2.1,19.676,19.676,0,0,1-7.112-5.927l4.415-5.038a15.438,15.438,0,0,0,11.5,5.927,10.342,10.342,0,0,0,7.23-2.756,8.445,8.445,0,0,0,2.963-6.4,8.208,8.208,0,0,0-1.985-5.393,31.766,31.766,0,0,0-8.89-5.927,28.536,28.536,0,0,1-9.927-7.112,14.253,14.253,0,0,1-2.7-8.564,13.9,13.9,0,0,1,4.237-10.4,14.816,14.816,0,0,1,10.786-4.119A22.373,22.373,0,0,1,1274.608,295.5Z"/><path class="cls-2" d="M1290.343,289.519h7.053v25.662a54.524,54.524,0,0,0,1.007,12.92,14.431,14.431,0,0,0,5.927,7.971,17.6,17.6,0,0,0,10.164,2.963,17.187,17.187,0,0,0,10.045-2.963,14.609,14.609,0,0,0,5.689-7.467,52.836,52.836,0,0,0,1.067-13.453V289.519h7.23v26.936a42.67,42.67,0,0,1-2.637,17.128,20.239,20.239,0,0,1-7.971,8.89,29.307,29.307,0,0,1-26.669,0,20.061,20.061,0,0,1-8.03-9.1,44.449,44.449,0,0,1-2.637-17.542Z"/><path class="cls-2" d="M1353.49,289.519h7.23v7.734a25.307,25.307,0,0,1,6.815-7.053A13.453,13.453,0,0,1,1375,287.86a12.861,12.861,0,0,1,5.927,1.867l-3.645,5.927a9.868,9.868,0,0,0-3.7-.948,10.223,10.223,0,0,0-6.815,2.963,18.312,18.312,0,0,0-4.978,8.89,86.29,86.29,0,0,0-1.3,18.965v18.55h-7.2Z"/><path class="cls-2" d="M1435.1,326.2l5.927,3.111a32.388,32.388,0,0,1-6.756,9.275,26.67,26.67,0,0,1-8.623,5.393,29.929,29.929,0,0,1-10.846,1.867,26.225,26.225,0,0,1-21.009-8.89,29.929,29.929,0,0,1-7.586-19.913,29.336,29.336,0,0,1,6.4-18.609,26.225,26.225,0,0,1,21.9-10.4,27.114,27.114,0,0,1,22.432,10.638,29.929,29.929,0,0,1,5.927,18.787h-49.22a22.313,22.313,0,0,0,5.927,15.676,19.5,19.5,0,0,0,14.609,5.927,23.469,23.469,0,0,0,8.149-1.422,21.484,21.484,0,0,0,6.756-3.882A33.1,33.1,0,0,0,1435.1,326.2Zm0-14.816a23.469,23.469,0,0,0-4.119-8.89,19.439,19.439,0,0,0-7.112-5.452,21.9,21.9,0,0,0-9.275-2.1,20.121,20.121,0,0,0-13.9,5.215,23.469,23.469,0,0,0-6.4,11.379Z"/><path class="cls-2" d="M1458.033,289.519h7.053v9.571a27.351,27.351,0,0,1,7.586-7.793,21.484,21.484,0,0,1,11.26-3.23,18.728,18.728,0,0,1,7.586,1.571,16.386,16.386,0,0,1,5.927,4.178,22.372,22.372,0,0,1,3.941,7.408,26.017,26.017,0,0,1,8.89-9.927,20.743,20.743,0,0,1,11.379-3.348,17.957,17.957,0,0,1,10.045,2.963,17.187,17.187,0,0,1,6.46,8.03,42.847,42.847,0,0,1,2.1,15.439V344.31h-7.23V314.381a39.2,39.2,0,0,0-1.245-11.853,10.964,10.964,0,0,0-4.3-5.334,12.86,12.86,0,0,0-7.23-2.045,15.794,15.794,0,0,0-9.394,2.963,17.424,17.424,0,0,0-5.927,8.09,51.236,51.236,0,0,0-1.985,16.861v21.484H1495.9v-28.27a47.855,47.855,0,0,0-1.245-13.512,11.32,11.32,0,0,0-4.3-5.927,12.446,12.446,0,0,0-7.29-2.163,15.794,15.794,0,0,0-9.156,2.963,17.484,17.484,0,0,0-6.282,7.971,42.789,42.789,0,0,0-2.045,15.261v23.291h-7.053Z"/><path class="cls-2" d="M1603.322,326.2l5.927,3.111a32.6,32.6,0,0,1-6.756,9.275,26.878,26.878,0,0,1-8.623,5.393,29.929,29.929,0,0,1-10.845,1.867,26.225,26.225,0,0,1-21.01-8.89,29.929,29.929,0,0,1-7.586-19.913,29.337,29.337,0,0,1,6.4-18.609,26.225,26.225,0,0,1,21.78-10.4,27.114,27.114,0,0,1,22.432,10.638,29.929,29.929,0,0,1,5.927,18.787h-49.249a22.314,22.314,0,0,0,5.927,15.676,19.5,19.5,0,0,0,14.431,5.927,23.469,23.469,0,0,0,8.267-1.452,21.424,21.424,0,0,0,6.756-3.882A32.982,32.982,0,0,0,1603.322,326.2Zm0-14.816a23.469,23.469,0,0,0-4.119-8.89,19.5,19.5,0,0,0-7.112-5.452,21.9,21.9,0,0,0-9.334-2.1,20.12,20.12,0,0,0-13.9,5.215,23.528,23.528,0,0,0-6.4,11.379Z"/><path class="cls-2" d="M1626.287,289.519h7.053v9.808a29.633,29.633,0,0,1,9.393-8.445,23.024,23.024,0,0,1,11.2-2.815,19.439,19.439,0,0,1,10.964,3.111,18.669,18.669,0,0,1,6.993,8.445,44.659,44.659,0,0,1,2.282,16.505v28.24h-7.053V318.144a64.624,64.624,0,0,0-.77-12.683,13.957,13.957,0,0,0-4.741-8.208,14.253,14.253,0,0,0-9.1-2.756,17.424,17.424,0,0,0-11.5,4.237,19.853,19.853,0,0,0-6.638,10.4,72.993,72.993,0,0,0-1.008,14.816v20.121h-7.053Z"/><path class="cls-2" d="M1697.583,269.132h7.053v20.417h11.2v5.927h-11.2V344.25h-7.053V295.623h-9.631V289.7h9.631Z"/><polygon class="cls-1" points="327.373 229.039 549.321 229.039 549.321 206.34 367.466 206.34 367.466 123.962 541.794 123.962 541.794 101.204 367.466 101.204 367.466 26.234 549.321 26.234 549.321 3.476 327.373 3.476 327.373 229.039"/><path class="cls-1" d="M847.928,19.892C831.749,7.506,790.56,1.224,725.812,1.224c-56.006,0-94.824,5.512-115.36,16.387S579.22,49.317,579.22,79.246l-.5,21.306v15.735c0,51.531,8.09,83.771,23.943,96.454s57.4,18.787,123.153,18.787,107.714-6.519,123.153-18.965,23.943-45.96,23.943-99.21C872.582,63.867,864.048,32.4,847.928,19.892Zm-13.809,96.276c0,45.9-4.534,73.074-13.572,80.778s-41.041,11.675-95.15,11.675-85.934-3.941-94.824-11.675S617,162.069,617,116.169s4.682-72.9,13.69-80.6,40.982-11.675,94.824-11.675c46.908,0,77.045,3.348,89.757,9.927S834.119,56.1,834.119,80.372Z"/><polygon class="cls-1" points="1151.158 3.476 888.228 3.476 888.228 28.367 1000.121 28.367 1000.121 229.039 1040.273 229.039 1040.273 28.367 1151.158 28.367 1151.158 3.476"/><path class="cls-1" d="M1292.861,3.476h-55.146L1111.184,229.039H1153.8l26.4-47.412h173.084l26.669,47.412h41.9l-128.813-225ZM1192.11,161.151l74.081-134.887,75.03,134.828Z"/><path class="cls-1" d="M1670.054,110.775c28.121-6.875,42.434-22.787,42.434-47.412s-6.579-40.834-19.824-48.449-40.923-11.438-82.971-11.438H1457V229.039H1625.9c35.559,0,60.806-4.919,75.207-14.55s21.78-26.669,21.78-50.672C1723.067,134.719,1705.228,116.88,1670.054,110.775ZM1497.208,26.234h111.715c27.41,0,45.367,2.222,53.339,6.578s11.853,13.957,11.853,28.714c0,17.068-4.534,28.181-13.572,33.04s-29.929,7.467-62.228,7.467H1497.208Zm174.151,172.521c-8.89,4.919-28.358,7.349-57.635,7.349H1497.208V124.792h99.062c40.626,0,65.814,2.282,74.911,6.756s13.453,16.565,13.453,36.27C1684.693,183.523,1680.218,193.954,1671.358,198.755Z"/><path class="cls-1" d="M141.1,116.169V138.9H252.284v13.038h0v.83h0c0,25.069-4.978,40.8-14.372,46.671s-35.352,9.1-76.482,9.1c-53.872,0-87.3-3.23-99.625-9.631s-18.283-23.5-18.283-51.264v-32l.385-29.9c0-27.41,5.571-44.775,16.505-51.59s39.2-10.371,83.86-10.371c47.886,0,78.319,2.163,89.757,6.46S250.3,45.91,250.3,63.867v5.927h39.174V60.7c0-25.01-8.682-41.486-25.84-48.657S208.783,1.224,150.614,1.224,53.42,6.765,34.218,17.729,5,51.244,5,84.521v52.894c0,39.619,8.89,65.458,26.225,76.837s56.657,17.187,117.049,17.187c63.917,0,104.01-4.86,119.212-14.49s22.017-32.062,22.965-68.155h0V116.2Z"/></g></svg>